<svg width="36" height="40" viewBox="0 0 36 40" fill="none" xmlns="http://www.w3.org/2000/svg">
  <circle cx="18" cy="19" r="18" fill="#F2F2F2" />
  <path
    d="M15.0781 23.5938C15.099 24.1146 15.2865 24.5156 15.6406 24.7969C16.0052 25.0781 16.4323 25.2188 16.9219 25.2188C17.4219 25.2188 17.8542 25.0729 18.2188 24.7812C18.5938 24.4896 18.776 24.0938 18.7656 23.5938L18.75 22.5781C18.7396 22.2135 18.8854 21.8438 19.1875 21.4688C19.4896 21.0833 19.8698 20.7344 20.3281 20.4219C20.7865 20.1094 21.2812 19.7396 21.8125 19.3125C22.3542 18.875 22.8542 18.4323 23.3125 17.9844C23.7708 17.526 24.151 16.9531 24.4531 16.2656C24.7656 15.5781 24.9219 14.8385 24.9219 14.0469C24.9219 13.0156 24.7344 12.1094 24.3594 11.3281C23.9948 10.5365 23.4844 9.90625 22.8281 9.4375C22.1823 8.96875 21.4479 8.61979 20.625 8.39062C19.8021 8.16146 18.901 8.04688 17.9219 8.04688C16.2656 8.04688 14.6823 8.26042 13.1719 8.6875C12.724 8.82292 12.3854 9.04167 12.1562 9.34375C11.9375 9.64583 11.8281 9.97396 11.8281 10.3281C11.8281 10.8177 11.9635 11.224 12.2344 11.5469C12.5156 11.8698 12.875 12.0312 13.3125 12.0312C13.5312 12.0312 14.0781 11.9688 14.9531 11.8438C15.8281 11.7083 16.4896 11.6406 16.9375 11.6406C17.9271 11.6406 18.7344 11.8542 19.3594 12.2812C19.9948 12.6979 20.3125 13.401 20.3125 14.3906C20.3125 14.8385 20.2135 15.276 20.0156 15.7031C19.8281 16.1198 19.5781 16.5 19.2656 16.8438C18.9531 17.1875 18.6042 17.5312 18.2188 17.875C17.8438 18.2083 17.4688 18.5417 17.0938 18.875C16.7292 19.2083 16.3906 19.5469 16.0781 19.8906C15.7656 20.2344 15.5156 20.6146 15.3281 21.0312C15.1406 21.4479 15.0521 21.8802 15.0625 22.3281L15.0781 23.5938ZM16.9531 31.6562C17.6094 31.6562 18.151 31.4375 18.5781 31C19.0052 30.5729 19.2188 30.0521 19.2188 29.4375C19.2188 28.8125 19 28.2917 18.5625 27.875C18.125 27.4583 17.5885 27.25 16.9531 27.25C16.2865 27.25 15.7448 27.4688 15.3281 27.9062C14.9115 28.3333 14.7031 28.8438 14.7031 29.4375C14.7031 30.0521 14.9115 30.5729 15.3281 31C15.7552 31.4375 16.2969 31.6562 16.9531 31.6562Z"
    fill="#929292" />
</svg>